<?xml version="1.0" encoding="UTF-8"?>
<svg width="10px" height="20px" viewBox="0 0 10 20" version="1.1" xmlns="http://www.w3.org/2000/svg" xmlns:xlink="http://www.w3.org/1999/xlink">
    <!-- Generator: Sketch 48.2 (47327) - http://www.bohemiancoding.com/sketch -->
    <title>Facebook Copy</title>
    <desc>Created with Sketch.</desc>
    <defs>
        <path d="M6.55851444,0.0892246607 C5.69431691,0.196356586 4.90970309,0.516732058 4.26385063,1.12993479 C3.3996531,1.95332016 3.01907969,3.00423333 2.973166,4.18268451 C2.93643506,5.1111612 2.95480053,6.04167849 2.94867871,6.97117548 C2.9476584,7.21604845 2.9476584,7.21706876 2.71400877,7.21706876 L0,7.21706876 L0,10.7228335 L2.9476584,10.7228335 L2.94051627,19.6709 L6.48811346,19.6668188 L6.48811346,10.714671 C6.48811346,10.714671 8.39404142,10.7105898 9.22865014,10.7187523 C9.40210183,10.7207929 9.45107642,10.6626355 9.4714825,10.4932651 C9.59289868,9.47398132 9.72451791,8.45469757 9.86021835,7.43643413 C9.88266503,7.26706366 9.84593409,7.21094693 9.66942149,7.21298754 C9.13478217,7.21706876 8.60014284,7.21706876 8.06550352,7.21706876 C7.60330579,7.21706876 7.14008775,7.21706876 6.67686971,7.21910937 C6.5238241,7.22012967 6.48403224,7.17115508 6.48607285,7.02117038 C6.49321498,6.35593214 6.48403224,5.6917142 6.49219467,5.02545566 C6.49525559,4.78670451 6.51158045,4.54387215 6.55647383,4.31022252 C6.64217937,3.86536995 6.90337721,3.55417722 7.33190491,3.42051739 C7.5318845,3.35827884 7.74614835,3.31746668 7.95531068,3.31134485 C8.57667585,3.29297938 9.20008162,3.29501999 9.8224671,3.29501999 C9.93674115,3.29399968 10,3.27563421 10,3.13483225 C9.99489848,2.19309161 9.99693909,1.25135097 9.9989797,0.309610336 C9.9989797,0.214722059 9.97347209,0.16472716 9.86838078,0.156564728 C9.13988369,0.093305877 8.4124069,0.0239252015 7.6828895,0.0239252015 C7.30843791,0.0239252015 6.93398633,0.0422906744 6.55851444,0.0892246607 Z" id="path-1"></path>
    </defs>
    <g id="Symbols" stroke="none" stroke-width="1" fill="none" fill-rule="evenodd">
        <g id="Facebook-Copy">
            <g id="Page-1">
                <mask id="mask-2" fill="white">
                    <use xlink:href="#path-1"></use>
                </mask>
                <use id="Clip-2" fill="#F78E11" xlink:href="#path-1"></use>
            </g>
        </g>
    </g>
</svg>