<?xml version="1.0" encoding="UTF-8"?>
<svg width="15px" height="15px" viewBox="0 0 15 15" version="1.1" xmlns="http://www.w3.org/2000/svg" xmlns:xlink="http://www.w3.org/1999/xlink">
    <!-- Generator: Sketch 48.2 (47327) - http://www.bohemiancoding.com/sketch -->
    <title>Linkedin Copy</title>
    <desc>Created with Sketch.</desc>
    <defs></defs>
    <g id="Symbols" stroke="none" stroke-width="1" fill="none" fill-rule="evenodd">
        <g id="Linkedin-Copy" fill="#F78E11">
            <path d="M8.47150288,8.75631791 C8.42888549,8.9640476 8.41647974,9.18198851 8.41618784,9.39520482 C8.41195529,11.1783577 8.41093364,12.9613581 8.41764734,14.744511 C8.41837709,14.9350188 8.37955439,15.0022299 8.1828138,14.9999438 C7.25413399,14.9885134 6.32560013,14.9909519 5.39706627,14.9984198 C5.22469932,14.9999438 5.15960563,14.9584893 5.15989753,14.7624949 C5.16558958,11.5348358 5.16588148,8.30687195 5.16062728,5.07921286 C5.16062728,4.89251523 5.22309387,4.8475554 5.38772547,4.84846983 C6.32268113,4.85395646 7.25719894,4.85426127 8.1921546,4.84846983 C8.35634834,4.84725058 8.42509079,4.88946711 8.41808519,5.0776888 C8.40378209,5.44590225 8.41356074,5.81487772 8.41356074,6.18827298 C8.60913373,5.95509145 8.78193852,5.71611849 8.98641446,5.51189414 C9.51416964,4.98502581 10.1521171,4.7180101 10.8795318,4.64576955 C11.6027141,4.573529 12.2972901,4.66802086 12.9539191,4.98700709 C13.9652066,5.47836477 14.5399577,6.35150005 14.7960999,7.45050136 C14.9157789,7.96273869 14.9805807,8.50058026 14.9868566,9.0277534 C15.008895,10.9342029 14.9928405,12.8411096 14.9999921,14.7480163 C15.0007218,14.94523 14.9513907,15.0014679 14.7613638,14.9994866 C13.83283,14.9894278 12.9041501,14.9904947 11.9756163,14.9987246 C11.798433,15.0002486 11.7412206,14.9502594 11.7419503,14.7589896 C11.7482262,12.9887913 11.7556696,11.2185929 11.7374259,9.44869941 C11.7333393,9.0789619 11.6637211,8.69611745 11.5530911,8.34360185 C11.340296,7.66280323 10.8661044,7.34107368 10.1791178,7.33634909 C9.33873775,7.33010044 8.64868618,7.89674679 8.47150288,8.75631791 M3.43929305,9.9208539 C3.43929305,11.5273679 3.4397309,13.1335772 3.43929305,14.7402436 C3.43929305,14.994 3.4385633,14.9944572 3.19132401,14.994762 C2.26308205,14.994762 1.33498604,14.9909519 0.407181929,14.9984198 C0.238463736,14.9994866 0.185337938,14.9522407 0.185775788,14.7695056 C0.190884038,11.5433706 0.190592138,8.31738798 0.185775788,5.09125295 C0.185337938,4.90379329 0.236566386,4.84603133 0.416522728,4.8475554 C1.35060269,4.85548052 2.28526645,4.85426127 3.21934641,4.84801261 C3.3880646,4.84725058 3.4438175,4.89922111 3.44308775,5.08149896 C3.43666595,6.69441406 3.43929305,8.30763398 3.43929305,9.9208539 M1.65476248,0.00789564051 C2.2220701,-0.034625697 2.75303618,0.0883661287 3.16286376,0.529277345 C3.64756369,1.05020183 3.77702134,1.67781068 3.55707469,2.36318148 C3.33946325,3.04032235 2.84469277,3.3867417 2.19215035,3.51125759 C1.73211597,3.59873877 1.28901179,3.53701425 0.868967709,3.31831131 C0.408203579,3.07811909 -0.0319816024,2.51071071 0.00246259615,1.75508063 C-0.040884552,1.00173665 0.487162525,0.0965960649 1.65476248,0.00789564051" id="Linkedin"></path>
        </g>
    </g>
</svg>