<?xml version="1.0" encoding="UTF-8"?>
<svg width="16px" height="14px" viewBox="0 0 16 14" version="1.1" xmlns="http://www.w3.org/2000/svg" xmlns:xlink="http://www.w3.org/1999/xlink">
    <!-- Generator: Sketch 48.2 (47327) - http://www.bohemiancoding.com/sketch -->
    <title>Twitter Copy</title>
    <desc>Created with Sketch.</desc>
    <defs></defs>
    <g id="Symbols" stroke="none" stroke-width="1" fill="none" fill-rule="evenodd">
        <g id="Twitter-Copy" fill="#F78E11">
            <path d="M15.0364381,2.96814008 C14.5839756,3.34171478 14.4544366,3.78713759 14.4359551,4.37147851 C14.3494277,7.12223419 13.3109314,9.45198834 11.4369001,11.3387972 C8.5129476,14.2826225 3.79846687,14.8443118 0.287640449,12.7223155 C0.224299065,12.6840909 0.169694424,12.6301163 0,12.4959763 C1.79304841,12.5667626 3.3187861,12.1372667 4.69902342,11.0340622 C2.67041899,10.2713398 1.92527565,9.65868434 1.76129371,8.62662007 C2.15864749,8.59264264 2.55465715,8.55866522 2.95066681,8.52468779 C1.51364066,7.84549323 0.585865799,6.8038728 0.467079702,5.045895 C0.944072246,5.17738055 1.36780426,5.29382402 1.79136827,5.41079838 C1.82228289,5.38496138 1.85286149,5.35965528 1.88394414,5.33381828 C0.546718471,4.04143737 0.11458574,2.5505009 0.911477476,0.699616073 C2.78030033,2.91062621 5.03404389,4.13929944 7.81552032,4.36422291 C7.81552032,4.0759457 7.81501628,3.84376663 7.81552032,3.61105666 C7.81804053,2.19002165 8.41516329,1.1149547 9.59042319,0.448855599 C10.7562743,-0.211934527 11.9518639,-0.149819547 13.0135462,0.679618942 C13.5283419,1.08221603 13.9609787,1.13707542 14.5029928,0.868618368 C14.847086,0.698554278 15.2086527,0.568484449 15.5624908,0.420718044 C15.6007981,0.456111195 15.6391053,0.49132738 15.6774126,0.527251428 C15.2745143,1.07142112 14.8716161,1.61559082 14.4277224,2.21532776 C14.9495747,2.08578883 15.447569,1.9619128 15.9452273,1.83821374 C15.9637089,1.8652895 15.9818545,1.89254222 16,1.91979495 C15.6814449,2.27301859 15.3968287,2.67066064 15.0364381,2.96814008" id="Tweet"></path>
        </g>
    </g>
</svg>