<?xml version="1.0" encoding="UTF-8"?>
<svg width="106px" height="106px" viewBox="0 0 106 106" version="1.1" xmlns="http://www.w3.org/2000/svg" xmlns:xlink="http://www.w3.org/1999/xlink">
    <!-- Generator: Sketch 48.2 (47327) - http://www.bohemiancoding.com/sketch -->
    <title>Financial Advising</title>
    <desc>Created with Sketch.</desc>
    <defs>
        <polygon id="path-1" points="0.0004 28 47.4544 28 47.4544 0.5473 0.0004 0.5473"></polygon>
        <polygon id="path-3" points="32.0543 0.167 0.3873 0.167 0.3873 31.8332 32.0543 31.8332 32.0543 0.167"></polygon>
    </defs>
    <g id="Homepage" stroke="none" stroke-width="1" fill="none" fill-rule="evenodd" transform="translate(-262.000000, -1067.000000)">
        <g id="You-Have-A-Funding-Need" transform="translate(0.000000, 721.000000)">
            <g id="Treatment-1" transform="translate(149.000000, 138.000000)">
                <g id="Group-14" transform="translate(0.000000, 209.000000)">
                    <g id="Group-3">
                        <g id="Financial-Advising" transform="translate(114.000000, 0.000000)">
                            <circle id="Oval-2" stroke="#0176BC" stroke-width="2" cx="52" cy="52" r="52"></circle>
                            <g id="Page-1" transform="translate(17.000000, 20.000000)">
                                <path d="M24.006,15.6665 C28.391,15.6665 31.959,19.2345 31.959,23.6195 C31.959,28.0045 28.391,31.5725 24.006,31.5725 C19.621,31.5725 16.053,28.0045 16.053,23.6195 C16.053,19.2345 19.621,15.6665 24.006,15.6665 M24.006,33.5725 C29.494,33.5725 33.959,29.1075 33.959,23.6195 C33.959,18.1315 29.494,13.6665 24.006,13.6665 C18.518,13.6665 14.053,18.1315 14.053,23.6195 C14.053,29.1075 18.518,33.5725 24.006,33.5725" id="Fill-1" fill="#0176BC"></path>
                                <g id="Group-5" transform="translate(0.000000, 35.833300)">
                                    <mask id="mask-2" fill="white">
                                        <use xlink:href="#path-1"></use>
                                    </mask>
                                    <g id="Clip-4"></g>
                                    <path d="M45.0524,6.7883 L39.9184,26.0003 L25.7114,26.0003 L35.1204,3.0953 L45.0524,6.7883 Z M7.5364,26.0003 L2.3994,6.7803 L12.1784,3.0943 L21.9684,26.0003 L7.5364,26.0003 Z M23.8404,25.2913 L13.2644,0.5473 L0.0004,5.5473 L6.0004,28.0003 L41.4534,28.0003 L47.4544,5.5473 L34.0054,0.5473 L23.8404,25.2913 Z" id="Fill-3" fill="#0176BC" mask="url(#mask-2)"></path>
                                </g>
                                <path d="M23.8961,40.9385 L22.4131,37.5005 L25.3791,37.5005 L23.8961,40.9385 Z M23.9141,50.7455 L22.5361,47.4875 L23.8961,41.3175 L25.2571,47.4925 L23.9141,50.7455 Z M19.3731,35.5005 L21.8591,41.2665 L20.4451,47.6795 L23.9371,55.9335 L27.3451,47.6745 L25.9331,41.2665 L28.4191,35.5005 L19.3731,35.5005 Z" id="Fill-6" fill="#0176BC"></path>
                                <g id="Group-10" transform="translate(37.000000, 0.833300)">
                                    <mask id="mask-4" fill="white">
                                        <use xlink:href="#path-3"></use>
                                    </mask>
                                    <g id="Clip-9"></g>
                                    <path d="M17.2203,27.7082 L23.5573,27.7082 C21.6933,28.8802 19.5383,29.6312 17.2203,29.7982 L17.2203,27.7082 Z M2.3873,16.0002 C2.3873,8.7042 8.0693,2.7242 15.2383,2.2162 L15.2383,14.9192 L15.2203,14.9192 L15.2203,29.7982 C8.0573,29.2842 2.3873,23.2912 2.3873,16.0002 Z M30.0083,14.9192 L17.2383,14.9192 L17.2383,2.2162 C24.0193,2.7152 29.4793,8.1382 30.0083,14.9192 Z M29.8673,18.2502 L17.2203,18.2502 L17.2203,16.9192 L30.0233,16.9192 C29.9933,17.3692 29.9393,17.8122 29.8673,18.2502 Z M17.2203,20.2502 L29.3733,20.2502 C29.1733,20.8672 28.9323,21.4652 28.6513,22.0412 L17.2203,22.0412 L17.2203,20.2502 Z M17.2203,25.7082 L17.2203,24.0412 L27.4613,24.0412 C27.0373,24.6322 26.5723,25.1912 26.0623,25.7082 L17.2203,25.7082 Z M31.9993,16.9192 L32.0543,16.9192 L32.0493,15.9142 L32.0493,14.9192 L31.9933,14.9192 C31.4323,6.7002 24.5663,0.1662 16.2203,0.1662 C7.4903,0.1662 0.3873,7.2702 0.3873,16.0002 C0.3873,24.3932 6.9563,31.2632 15.2203,31.7832 L15.2203,31.8332 L16.2203,31.8332 L17.2203,31.8332 L17.2203,31.7832 C25.1553,31.2832 31.5083,24.9242 31.9993,16.9192 Z" id="Fill-8" fill="#0176BC" mask="url(#mask-4)"></path>
                                </g>
                                <path d="M56.5031,7.5224 C56.9691,7.5224 57.3471,7.1444 57.3471,6.6784 C57.3471,6.2124 56.9691,5.8354 56.5031,5.8354 C56.0371,5.8354 55.6591,6.2124 55.6591,6.6784 C55.6591,7.1444 56.0371,7.5224 56.5031,7.5224" id="Fill-11" fill="#0176BC"></path>
                                <path d="M59.2072,12.2344 C58.7412,12.2344 58.3632,12.6124 58.3632,13.0784 C58.3632,13.5444 58.7412,13.9214 59.2072,13.9214 C59.6732,13.9214 60.0512,13.5444 60.0512,13.0784 C60.0512,12.6124 59.6732,12.2344 59.2072,12.2344" id="Fill-13" fill="#0176BC"></path>
                                <path d="M55.8492,15.0478 C56.3152,15.0478 56.6932,14.6698 56.6932,14.2038 C56.6932,13.7378 56.3152,13.3608 55.8492,13.3608 C55.3832,13.3608 55.0052,13.7378 55.0052,14.2038 C55.0052,14.6698 55.3832,15.0478 55.8492,15.0478" id="Fill-15" fill="#0176BC"></path>
                                <path d="M56.0992,11.8603 C56.5652,11.8603 56.9432,11.4823 56.9432,11.0163 C56.9432,10.5503 56.5652,10.1733 56.0992,10.1733 C55.6332,10.1733 55.2552,10.5503 55.2552,11.0163 C55.2552,11.4823 55.6332,11.8603 56.0992,11.8603" id="Fill-17" fill="#0176BC"></path>
                                <path d="M61.8453,14.9072 C62.3113,14.9072 62.6893,14.5292 62.6893,14.0632 C62.6893,13.5972 62.3113,13.2202 61.8453,13.2202 C61.3793,13.2202 61.0013,13.5972 61.0013,14.0632 C61.0013,14.5292 61.3793,14.9072 61.8453,14.9072" id="Fill-19" fill="#0176BC"></path>
                                <path d="M59.1656,10.4267 C59.6316,10.4267 60.0096,10.0497 60.0096,9.5827 C60.0096,9.1167 59.6316,8.7397 59.1656,8.7397 C58.6996,8.7397 58.3216,9.1167 58.3216,9.5827 C58.3216,10.0497 58.6996,10.4267 59.1656,10.4267" id="Fill-21" fill="#0176BC"></path>
                                <path d="M64.9225,14.8262 C65.3885,14.8262 65.7665,14.4482 65.7665,13.9822 C65.7665,13.5162 65.3885,13.1392 64.9225,13.1392 C64.4565,13.1392 64.0785,13.5162 64.0785,13.9822 C64.0785,14.4482 64.4565,14.8262 64.9225,14.8262" id="Fill-23" fill="#0176BC"></path>
                                <path d="M63.0475,11.8887 C63.5135,11.8887 63.8915,11.5107 63.8915,11.0447 C63.8915,10.5787 63.5135,10.2017 63.0475,10.2017 C62.5815,10.2017 62.2035,10.5787 62.2035,11.0447 C62.2035,11.5107 62.5815,11.8887 63.0475,11.8887" id="Fill-25" fill="#0176BC"></path>
                                <path d="M60.1852,7.6484 C60.6512,7.6484 61.0292,7.2704 61.0292,6.8044 C61.0292,6.3384 60.6512,5.9614 60.1852,5.9614 C59.7192,5.9614 59.3412,6.3384 59.3412,6.8044 C59.3412,7.2704 59.7192,7.6484 60.1852,7.6484" id="Fill-27" fill="#0176BC"></path>
                            </g>
                        </g>
                    </g>
                </g>
            </g>
        </g>
    </g>
</svg>