<?xml version="1.0" encoding="UTF-8"?>
<svg width="93px" height="76px" viewBox="0 0 93 76" version="1.1" xmlns="http://www.w3.org/2000/svg" xmlns:xlink="http://www.w3.org/1999/xlink">
    <!-- Generator: Sketch 48.2 (47327) - http://www.bohemiancoding.com/sketch -->
    <title>Government Agencies</title>
    <desc>Created with Sketch.</desc>
    <defs>
        <polygon id="path-1" points="93.004 75.1129 93.004 0 0 0 0 75.1129"></polygon>
    </defs>
    <g id="Homepage" stroke="none" stroke-width="1" fill="none" fill-rule="evenodd" transform="translate(-828.000000, -4995.000000)">
        <g id="The-Value-We-Bring" transform="translate(0.000000, 4748.000000)">
            <g id="Group-25" transform="translate(122.000000, 247.000000)">
                <g id="Government-Agencies" transform="translate(706.000000, 0.000000)">
                    <mask id="mask-2" fill="white">
                        <use xlink:href="#path-1"></use>
                    </mask>
                    <g id="Clip-2"></g>
                    <path d="M2.0005,73.1129 L2.0005,69.0199 L6.4365,69.0199 L8.4365,69.0199 L83.0285,69.0199 L85.0285,69.0199 L91.0035,69.0199 L91.0035,73.1129 L2.0005,73.1129 Z M83.0275,62.9269 L83.0285,67.0199 L8.4365,67.0199 L8.4365,62.9269 L83.0275,62.9269 Z M23.4645,60.9189 L23.4645,32.7759 L26.4375,32.7759 L26.4375,60.9189 L26.4375,60.9269 L23.4645,60.9269 L23.4645,60.9189 Z M17.3715,60.9189 L21.4645,60.9189 L21.4645,32.7759 L17.3715,32.7759 L17.3715,60.9189 Z M8.4005,30.7759 L8.4005,26.6829 L9.6965,26.6829 L11.6965,26.6829 L81.6965,26.6829 L83.6965,26.6829 L85.9925,26.6829 L85.9925,30.7759 L78.7885,30.7759 L76.7885,30.7759 L72.6965,30.7759 L70.6965,30.7759 L67.7245,30.7759 L65.7245,30.7759 L61.6315,30.7759 L59.6315,30.7759 L56.6595,30.7759 L54.6595,30.7759 L50.5665,30.7759 L48.5665,30.7759 L45.5945,30.7759 L43.5945,30.7759 L39.5015,30.7759 L37.5015,30.7759 L34.5295,30.7759 L32.5295,30.7759 L28.4375,30.7759 L26.4375,30.7759 L23.4645,30.7759 L21.4645,30.7759 L17.3715,30.7759 L15.3715,30.7759 L8.4005,30.7759 Z M16.0895,20.5899 L16.0855,20.5959 L19.3815,20.5959 L74.0125,20.5959 L77.3085,20.5959 L77.3055,20.5899 L81.6965,20.5899 L81.6965,24.6829 L11.6965,24.6829 L11.6965,20.5899 L16.0895,20.5899 Z M46.6965,1.9999 C58.5765,1.9999 68.8775,8.7349 74.0095,18.5899 L19.3845,18.5899 C24.5165,8.7349 34.8165,1.9999 46.6965,1.9999 Z M72.6965,60.9189 L76.7885,60.9189 L76.7885,32.7759 L72.6965,32.7759 L72.6965,60.9189 Z M59.6315,60.9189 L59.6315,60.9269 L56.6595,60.9269 L56.6595,60.9189 L56.6595,32.7759 L59.6315,32.7759 L59.6315,60.9189 Z M61.6315,60.9189 L65.7245,60.9189 L65.7245,32.7759 L61.6315,32.7759 L61.6315,60.9189 Z M48.5665,60.9189 L48.5665,60.9269 L45.5945,60.9269 L45.5945,60.9189 L45.5945,32.7759 L48.5665,32.7759 L48.5665,60.9189 Z M50.5665,60.9189 L54.6595,60.9189 L54.6595,32.7759 L50.5665,32.7759 L50.5665,60.9189 Z M37.5015,60.9189 L37.5015,60.9269 L34.5295,60.9269 L34.5295,60.9189 L34.5295,32.7759 L37.5015,32.7759 L37.5015,60.9189 Z M39.5015,60.9189 L43.5945,60.9189 L43.5945,32.7759 L39.5015,32.7759 L39.5015,60.9189 Z M28.4375,60.9189 L32.5305,60.9189 L32.5305,32.7759 L28.4375,32.7759 L28.4375,60.9189 Z M67.7245,60.9269 L67.7245,60.9189 L67.7245,32.7759 L70.6965,32.7759 L70.6965,60.9189 L70.6965,60.9269 L67.7245,60.9269 Z M93.0035,73.1129 L93.0035,69.0199 L93.0035,67.0199 L91.0035,67.0199 L85.0285,67.0199 L85.0275,62.9269 L85.0275,60.9269 L83.0275,60.9269 L78.7885,60.9269 L78.7885,60.9189 L78.7885,32.7759 L85.9925,32.7759 L87.9925,32.7759 L87.9925,30.7759 L87.9925,26.6829 L87.9925,24.6829 L85.9925,24.6829 L83.6965,24.6829 L83.6965,20.5899 L83.6965,18.5899 L81.6965,18.5899 L76.2645,18.5899 L75.7865,17.6729 C70.1135,6.7719 58.9675,-0.0001 46.6965,-0.0001 C34.4265,-0.0001 23.2795,6.7719 17.6065,17.6729 L17.1295,18.5899 L11.6965,18.5899 L9.6965,18.5899 L9.6965,20.5899 L9.6965,24.6829 L8.4005,24.6829 L6.4005,24.6829 L6.4005,26.6829 L6.4005,30.7759 L6.4005,32.7759 L8.4005,32.7759 L15.3715,32.7759 L15.3715,60.9189 L15.3715,60.9269 L8.4365,60.9269 L6.4365,60.9269 L6.4365,62.9269 L6.4365,67.0199 L2.0005,67.0199 L-0.0005,67.0199 L0.0005,69.0199 L0.0005,73.1129 L0.0005,75.1129 L2.0005,75.1129 L91.0035,75.1129 L93.0045,75.1129 L93.0035,73.1129 Z" id="Fill-1" fill="#3A3A3A" mask="url(#mask-2)"></path>
                </g>
            </g>
        </g>
    </g>
</svg>