<?xml version="1.0" encoding="UTF-8"?>
<svg width="63px" height="63px" viewBox="0 0 63 63" version="1.1" xmlns="http://www.w3.org/2000/svg" xmlns:xlink="http://www.w3.org/1999/xlink">
    <!-- Generator: Sketch 48.2 (47327) - http://www.bohemiancoding.com/sketch -->
    <title>Lending Network</title>
    <desc>Created with Sketch.</desc>
    <defs>
        <polygon id="path-1" points="0 12.9199 0 0.5 62.904 0.5 62.904 63 0 63 0 12.9199 -0.0002 0.4999 12.4198 0.4999 12.4198 12.9199"></polygon>
        <polygon id="path-3" points="6.6941 0.5 12.904 0.5 12.904 12.92 0.4842 12.92 0.4842 0.5 6.6941 0.5"></polygon>
        <polygon id="path-5" points="2.1982199e-17 2.79 2.1982199e-17 0.943 0.9998 0.943 0.9998 2.79 0 2.79"></polygon>
        <polygon id="path-7" points="0 0.58 0 13 6.2099 13 12.4198 13 12.4198 0.58"></polygon>
        <polygon id="path-9" points="0.904 0.9434 0.904 2.7904 0.6248 2.7904 0.6248 0.9434 0.904 0.9434"></polygon>
        <polygon id="path-11" points="12.904 0.58 12.904 13 6.6941 13 0.4842 13 0.4842 0.58 12.904 0.58"></polygon>
    </defs>
    <g id="Homepage" stroke="none" stroke-width="1" fill="none" fill-rule="evenodd" transform="translate(-272.000000, -5003.000000)">
        <g id="The-Value-We-Bring" transform="translate(0.000000, 4748.000000)">
            <g id="Group-25" transform="translate(122.000000, 247.000000)">
                <g id="Group-9" transform="translate(0.000000, 7.000000)">
                    <g id="Lending-Network" transform="translate(150.000000, 0.000000)">
                        <g id="Group-5" transform="translate(0.000000, 0.500000)">
                            <mask id="mask-2" fill="white">
                                <use xlink:href="#path-1"></use>
                            </mask>
                            <g id="Clip-4"></g>
                            <path d="M6.2098,10.9199 C3.8888,10.9199 1.9998,9.0309 1.9998,6.7099 C1.9998,4.3889 3.8888,2.4999 6.2098,2.4999 C8.5308,2.4999 10.4198,4.3889 10.4198,6.7099 C10.4198,9.0309 8.5308,10.9199 6.2098,10.9199 M6.2098,0.4999 C2.7798,0.4999 -0.0002,3.2799 -0.0002,6.7099 C-0.0002,10.1399 2.7798,12.9199 6.2098,12.9199 C9.6398,12.9199 12.4198,10.1399 12.4198,6.7099 C12.4198,3.2799 9.6398,0.4999 6.2098,0.4999" id="Fill-3" fill="#3A3A3A"></path>
                        </g>
                        <path d="M56.6942,11.4199 C59.0152,11.4199 60.9042,9.5309 60.9042,7.2099 C60.9042,4.8889 59.0152,2.9999 56.6942,2.9999 C54.3732,2.9999 52.4842,4.8889 52.4842,7.2099 C52.4842,9.5309 54.3732,11.4199 56.6942,11.4199" id="Fill-6" fill="#FFFFFF"></path>
                        <g id="Group-10" transform="translate(50.000000, 0.500000)">
                            <mask id="mask-4" fill="white">
                                <use xlink:href="#path-3"></use>
                            </mask>
                            <g id="Clip-9"></g>
                            <path d="M6.6942,2.5 C9.0152,2.5 10.9042,4.389 10.9042,6.71 C10.9042,9.031 9.0152,10.92 6.6942,10.92 C4.3732,10.92 2.4842,9.031 2.4842,6.71 C2.4842,4.389 4.3732,2.5 6.6942,2.5 M6.6942,12.92 C10.1242,12.92 12.9042,10.14 12.9042,6.71 C12.9042,3.28 10.1242,0.5 6.6942,0.5 C3.2642,0.5 0.4842,3.28 0.4842,6.71 C0.4842,10.14 3.2642,12.92 6.6942,12.92" id="Fill-8" fill="#3A3A3A" mask="url(#mask-4)"></path>
                        </g>
                        <path d="M12.1404,55.4434 C12.3224,56.0264 12.4194,56.6464 12.4194,57.2904 C12.4194,56.6464 12.3224,56.0264 12.1404,55.4434" id="Fill-11" fill="#FFFFFF"></path>
                        <g id="Group-15" transform="translate(0.000000, 54.500000)">
                            <mask id="mask-6" fill="white">
                                <use xlink:href="#path-5"></use>
                            </mask>
                            <g id="Clip-14"></g>
                            <path d="M-0.0002,2.79 C-0.0002,2.146 0.0978,1.526 0.2788,0.943 C0.0978,1.526 -0.0002,2.146 -0.0002,2.79" id="Fill-13" fill="#FFFFFF" mask="url(#mask-6)"></path>
                        </g>
                        <path d="M0.4881,54.873 C0.6451,54.501 0.8371,54.148 1.0601,53.818 C0.8371,54.148 0.6451,54.501 0.4881,54.873" id="Fill-16" fill="#FFFFFF"></path>
                        <path d="M11.3592,53.8184 C11.5822,54.1484 11.7752,54.5014 11.9322,54.8734 C11.7752,54.5014 11.5822,54.1484 11.3592,53.8184" id="Fill-18" fill="#FFFFFF"></path>
                        <path d="M6.2098,53.0801 C3.8888,53.0801 1.9998,54.9691 1.9998,57.2901 C1.9998,59.6111 3.8888,61.5001 6.2098,61.5001 C8.5308,61.5001 10.4198,59.6111 10.4198,57.2901 C10.4198,54.9691 8.5308,53.0801 6.2098,53.0801" id="Fill-20" fill="#FFFFFF"></path>
                        <g id="Group-24" transform="translate(0.000000, 50.500000)">
                            <mask id="mask-8" fill="white">
                                <use xlink:href="#path-7"></use>
                            </mask>
                            <g id="Clip-23"></g>
                            <path d="M6.2098,11 C3.8888,11 1.9998,9.111 1.9998,6.79 C1.9998,4.469 3.8888,2.58 6.2098,2.58 C8.5308,2.58 10.4198,4.469 10.4198,6.79 C10.4198,9.111 8.5308,11 6.2098,11 M11.9318,4.373 C11.7748,4.001 11.5828,3.648 11.3588,3.318 C10.2438,1.666 8.3538,0.58 6.2098,0.58 C4.0658,0.58 2.1768,1.666 1.0608,3.318 C0.8368,3.648 0.6458,4.001 0.4878,4.373 C0.4098,4.559 0.3398,4.749 0.2788,4.943 C0.0978,5.526 -0.0002,6.146 -0.0002,6.79 C-0.0002,8.076 0.3908,9.271 1.0608,10.262 C1.6188,11.088 2.3698,11.772 3.2498,12.25 C3.6018,12.441 3.9748,12.6 4.3628,12.721 C4.9468,12.902 5.5668,13 6.2098,13 C6.8528,13 7.4738,12.902 8.0568,12.721 C8.4458,12.6 8.8178,12.441 9.1698,12.25 C10.0498,11.772 10.8018,11.088 11.3588,10.262 C12.0288,9.271 12.4198,8.076 12.4198,6.79 C12.4198,6.146 12.3218,5.526 12.1408,4.943 C12.0808,4.749 12.0108,4.559 11.9318,4.373" id="Fill-22" fill="#3A3A3A" mask="url(#mask-8)"></path>
                        </g>
                        <path d="M61.8436,53.8184 C62.0666,54.1484 62.2586,54.5014 62.4156,54.8734 C62.2586,54.5014 62.0666,54.1484 61.8436,53.8184" id="Fill-25" fill="#FFFFFF"></path>
                        <path d="M50.9725,54.873 C51.1285,54.501 51.3215,54.148 51.5445,53.818 C51.3215,54.148 51.1285,54.501 50.9725,54.873" id="Fill-27" fill="#FFFFFF"></path>
                        <g id="Group-31" transform="translate(62.000000, 54.500000)">
                            <mask id="mask-10" fill="white">
                                <use xlink:href="#path-9"></use>
                            </mask>
                            <g id="Clip-30"></g>
                            <path d="M0.6248,0.9434 C0.8068,1.5264 0.9038,2.1464 0.9038,2.7904 C0.9038,2.1464 0.8068,1.5264 0.6248,0.9434" id="Fill-29" fill="#FFFFFF" mask="url(#mask-10)"></path>
                        </g>
                        <path d="M56.6942,53.0801 C54.3732,53.0801 52.4842,54.9691 52.4842,57.2901 C52.4842,59.6111 54.3732,61.5001 56.6942,61.5001 C59.0152,61.5001 60.9042,59.6111 60.9042,57.2901 C60.9042,54.9691 59.0152,53.0801 56.6942,53.0801" id="Fill-32" fill="#FFFFFF"></path>
                        <path d="M50.4842,57.29 C50.4842,56.646 50.5822,56.026 50.7632,55.443 C50.5822,56.026 50.4842,56.646 50.4842,57.29" id="Fill-34" fill="#FFFFFF"></path>
                        <g id="Group-38" transform="translate(50.000000, 50.500000)">
                            <mask id="mask-12" fill="white">
                                <use xlink:href="#path-11"></use>
                            </mask>
                            <g id="Clip-37"></g>
                            <path d="M6.6942,11 C4.3732,11 2.4842,9.111 2.4842,6.79 C2.4842,4.469 4.3732,2.58 6.6942,2.58 C9.0152,2.58 10.9042,4.469 10.9042,6.79 C10.9042,9.111 9.0152,11 6.6942,11 M12.4162,4.373 C12.2582,4.001 12.0662,3.648 11.8432,3.318 C10.7272,1.666 8.8382,0.58 6.6942,0.58 C4.5502,0.58 2.6612,1.666 1.5452,3.318 C1.3212,3.648 1.1292,4.001 0.9722,4.373 C0.8932,4.559 0.8242,4.749 0.7632,4.943 C0.5822,5.526 0.4842,6.146 0.4842,6.79 C0.4842,8.076 0.8752,9.271 1.5452,10.262 C2.1022,11.088 2.8542,11.772 3.7342,12.25 C4.0862,12.441 4.4592,12.6 4.8472,12.721 C5.4302,12.902 6.0502,13 6.6942,13 C7.3372,13 7.9572,12.902 8.5412,12.721 C8.9292,12.6 9.3012,12.441 9.6542,12.25 C10.5342,11.772 11.2852,11.088 11.8432,10.262 C12.5122,9.271 12.9042,8.076 12.9042,6.79 C12.9042,6.146 12.8062,5.526 12.6252,4.943 C12.5642,4.749 12.4952,4.559 12.4162,4.373" id="Fill-36" fill="#3A3A3A" mask="url(#mask-12)"></path>
                        </g>
                        <polygon id="Fill-39" fill="#3A3A3A" points="14.202 8.104 19.202 8.104 19.202 6.104 14.202 6.104"></polygon>
                        <polygon id="Fill-41" fill="#3A3A3A" points="23.804 8.104 28.406 8.104 28.406 6.104 23.804 6.104"></polygon>
                        <polygon id="Fill-42" fill="#3A3A3A" points="33.008 8.104 37.61 8.104 37.61 6.104 33.008 6.104"></polygon>
                        <polygon id="Fill-43" fill="#3A3A3A" points="43.2283 3.7129 45.6203 6.1039 42.2123 6.1039 42.2123 8.1039 45.6213 8.1039 43.2283 10.4939 46.1083 10.4939 49.4993 7.1039 46.1083 3.7129"></polygon>
                        <polygon id="Fill-44" fill="#3A3A3A" points="55.398 19.535 57.398 19.535 57.398 14.535 55.398 14.535"></polygon>
                        <polygon id="Fill-45" fill="#3A3A3A" points="55.398 37.943 57.398 37.943 57.398 33.34 55.398 33.34"></polygon>
                        <polygon id="Fill-46" fill="#3A3A3A" points="55.398 28.739 57.398 28.739 57.398 24.136 55.398 24.136"></polygon>
                        <polygon id="Fill-47" fill="#3A3A3A" points="55.3983 45.9541 53.0073 43.5611 53.0073 46.4401 56.3983 49.8311 59.7893 46.4401 59.7893 43.5611 57.3983 45.9541 57.3983 42.5461 55.3983 42.5461"></polygon>
                        <polygon id="Fill-48" fill="#000000" points="4.842 31.026 6.842 31.026 6.842 26.423 4.842 26.423"></polygon>
                        <polygon id="Fill-49" fill="#000000" points="4.842 40.23 6.842 40.23 6.842 35.627 4.842 35.627"></polygon>
                        <polygon id="Fill-50" fill="#000000" points="4.842 49.831 6.842 49.831 6.842 44.831 4.842 44.831"></polygon>
                        <polygon id="Fill-51" fill="#000000" points="6.8421 18.4121 9.2331 20.8051 9.2331 17.9261 5.8421 14.5351 2.4511 17.9261 2.4511 20.8051 4.8421 18.4121 4.8421 21.8201 6.8421 21.8201"></polygon>
                        <polygon id="Fill-52" fill="#3A3A3A" points="43.968 58.527 48.968 58.527 48.968 56.527 43.968 56.527"></polygon>
                        <polygon id="Fill-53" fill="#3A3A3A" points="25.558 58.527 30.161 58.527 30.161 56.527 25.558 56.527"></polygon>
                        <polygon id="Fill-54" fill="#3A3A3A" points="34.763 58.527 39.366 58.527 39.366 56.527 34.763 56.527"></polygon>
                        <polygon id="Fill-55" fill="#3A3A3A" points="19.9407 54.1367 17.0617 54.1367 13.6707 57.5277 17.0617 60.9177 19.9407 60.9177 17.5477 58.5277 20.9567 58.5277 20.9567 56.5277 17.5487 56.5277"></polygon>
                    </g>
                </g>
            </g>
        </g>
    </g>
</svg>