<?xml version="1.0" encoding="UTF-8"?>
<svg width="106px" height="106px" viewBox="0 0 106 106" version="1.1" xmlns="http://www.w3.org/2000/svg" xmlns:xlink="http://www.w3.org/1999/xlink">
    <!-- Generator: Sketch 48.2 (47327) - http://www.bohemiancoding.com/sketch -->
    <title>Execution &amp; Placement</title>
    <desc>Created with Sketch.</desc>
    <defs>
        <polygon id="path-1" points="0 62.9167 63.333 62.9167 63.333 -0.0003 0 -0.0003"></polygon>
    </defs>
    <g id="Homepage" stroke="none" stroke-width="1" fill="none" fill-rule="evenodd" transform="translate(-664.000000, -1067.000000)">
        <g id="You-Have-A-Funding-Need" transform="translate(0.000000, 721.000000)">
            <g id="Treatment-1" transform="translate(149.000000, 138.000000)">
                <g id="Group-14" transform="translate(0.000000, 209.000000)">
                    <g id="Group-30" transform="translate(403.000000, 0.000000)">
                        <g id="Execution-&amp;-Placement" transform="translate(113.000000, 0.000000)">
                            <circle id="Oval-2-Copy" stroke="#0176BC" stroke-width="2" cx="52" cy="52" r="52"></circle>
                            <g id="Page-1" transform="translate(20.000000, 21.000000)">
                                <path d="M57.6104,15.2087 C57.6104,16.3027 56.8344,17.1957 55.4224,17.4547 L55.4224,18.6537 L54.0834,18.6537 L54.0834,17.5607 C53.2584,17.5127 52.4604,17.2897 52.0014,17.0557 L52.3894,15.4327 C52.9184,15.6907 53.6474,15.9497 54.4594,15.9497 C55.0474,15.9497 55.4694,15.7847 55.4694,15.4087 C55.4694,15.0437 55.1294,14.8207 54.2474,14.5507 C52.9654,14.1397 52.0604,13.5387 52.0604,12.3527 C52.0604,11.2817 52.8004,10.4357 54.1304,10.1657 L54.1304,9.0837 L55.4694,9.0837 L55.4694,10.0707 C56.2814,10.1057 56.8344,10.2707 57.2564,10.4467 L56.8814,12.0117 C56.5634,11.8817 55.9994,11.6107 55.1054,11.6107 C54.4124,11.6107 54.2004,11.8577 54.2004,12.1157 C54.2004,12.4097 54.6004,12.6347 55.5874,12.9867 C57.0694,13.4697 57.6104,14.1397 57.6104,15.2087 Z" id="Fill-1" fill="#0176BC"></path>
                                <path d="M61.333,60.9167 L47.938,60.9167 L47.938,22.5417 L53.847,22.5417 L55.819,22.5417 L61.333,22.5417 L61.333,60.9167 Z M48.413,15.1077 L48.413,13.1347 C48.413,10.1387 50.851,7.7007 53.847,7.7007 L55.819,7.7007 C58.815,7.7007 61.253,10.1387 61.253,13.1347 L61.253,15.1077 C61.253,18.1037 58.815,20.5417 55.819,20.5417 L53.847,20.5417 C50.851,20.5417 48.413,18.1037 48.413,15.1077 Z M59.305,1.9607 C59.253,3.9977 57.587,5.6417 55.538,5.6417 L54.111,5.6417 C52.062,5.6417 50.396,3.9977 50.344,1.9607 L59.305,1.9607 Z M60.881,20.5417 C62.337,19.1847 63.253,17.2557 63.253,15.1077 L63.253,13.1347 C63.253,10.1717 61.516,7.6207 59.007,6.4267 C60.383,5.3787 61.275,3.7287 61.275,1.8637 L61.275,0.0047 L61.229,0.0047 L61.229,-0.0003 L48.38,-0.0003 L48.38,0.0047 L48.373,0.0047 L48.373,1.8637 C48.373,3.7307 49.269,5.3847 50.648,6.4327 C48.145,7.6287 46.413,10.1757 46.413,13.1347 L46.413,15.1077 C46.413,17.2557 47.329,19.1847 48.785,20.5417 L45.938,20.5417 L45.938,62.9167 L63.333,62.9167 L63.333,20.5417 L60.881,20.5417 Z" id="Fill-3" fill="#0176BC"></path>
                                <path d="M31.5869,28.1335 C31.0599,28.1335 30.5849,27.9655 30.2409,27.7975 L29.9879,28.8535 C30.2859,29.0055 30.8069,29.1505 31.3429,29.1815 L31.3429,29.8935 L32.2139,29.8935 L32.2139,29.1125 C33.1319,28.9445 33.6379,28.3625 33.6379,27.6515 C33.6379,26.9555 33.2849,26.5205 32.3209,26.2055 C31.6789,25.9765 31.4189,25.8305 31.4189,25.6395 C31.4189,25.4715 31.5569,25.3115 32.0079,25.3115 C32.5889,25.3115 32.9559,25.4875 33.1629,25.5705 L33.4069,24.5535 C33.1319,24.4395 32.7729,24.3315 32.2449,24.3095 L32.2449,23.6665 L31.3729,23.6665 L31.3729,24.3705 C30.5089,24.5455 30.0259,25.0965 30.0259,25.7925 C30.0259,26.5655 30.6149,26.9555 31.4489,27.2235 C32.0229,27.3995 32.2449,27.5445 32.2449,27.7815 C32.2449,28.0265 31.9699,28.1335 31.5869,28.1335" id="Fill-5" fill="#0176BC"></path>
                                <mask id="mask-2" fill="white">
                                    <use xlink:href="#path-1"></use>
                                </mask>
                                <g id="Clip-8"></g>
                                <path d="M24.875,60.9167 L38.271,60.9167 L38.271,33.2307 L24.875,33.2307 L24.875,60.9167 Z M27.592,26.2357 C27.592,24.3007 29.166,22.7267 31.102,22.7267 L32.564,22.7267 C34.5,22.7267 36.074,24.3007 36.074,26.2357 L36.074,27.6987 C36.074,29.6337 34.5,31.2087 32.564,31.2087 L31.102,31.2087 C29.166,31.2087 27.592,29.6337 27.592,27.6987 L27.592,26.2357 Z M34.731,18.3277 C34.519,19.4487 33.524,20.3067 32.355,20.3067 L31.298,20.3067 C30.129,20.3067 29.134,19.4487 28.922,18.3277 L34.731,18.3277 Z M38.074,27.6987 L38.074,26.2357 C38.074,24.1797 36.945,22.3887 35.275,21.4417 C36.31,20.5927 36.983,19.3207 36.983,17.8817 L36.983,16.1287 L27.05,16.1247 L26.675,16.1287 L26.67,17.8817 C26.67,19.3227 27.347,20.5977 28.384,21.4467 C26.718,22.3947 25.592,24.1827 25.592,26.2357 L25.592,27.6987 C25.592,29.0437 26.075,30.2737 26.875,31.2307 L22.876,31.2307 L22.876,62.9167 L40.271,62.9167 L40.271,31.2307 L36.791,31.2307 C37.591,30.2737 38.074,29.0437 38.074,27.6987 Z" id="Fill-7" fill="#0176BC" mask="url(#mask-2)"></path>
                                <path d="M8.3047,41.1774 C7.8897,41.1774 7.5167,41.0454 7.2467,40.9124 L7.0477,41.7424 C7.2827,41.8634 7.6917,41.9764 8.1127,42.0004 L8.1127,42.5604 L8.7977,42.5604 L8.7977,41.9474 C9.5187,41.8154 9.9157,41.3584 9.9157,40.7984 C9.9157,40.2514 9.6397,39.9084 8.8817,39.6624 C8.3767,39.4824 8.1727,39.3674 8.1727,39.2174 C8.1727,39.0854 8.2807,38.9584 8.6357,38.9584 C9.0927,38.9584 9.3807,39.0974 9.5427,39.1634 L9.7357,38.3644 C9.5187,38.2744 9.2367,38.1894 8.8217,38.1714 L8.8217,37.6664 L8.1357,37.6664 L8.1357,38.2194 C7.4567,38.3584 7.0777,38.7904 7.0777,39.3374 C7.0777,39.9454 7.5407,40.2514 8.1967,40.4624 C8.6477,40.6004 8.8217,40.7144 8.8217,40.9014 C8.8217,41.0934 8.6057,41.1774 8.3047,41.1774" id="Fill-9" fill="#0176BC" mask="url(#mask-2)"></path>
                                <path d="M2,60.9167 L15.396,60.9167 L15.396,45.9047 L2,45.9047 L2,60.9167 Z M5.067,39.6407 C5.067,38.0987 6.321,36.8447 7.863,36.8447 L9.136,36.8447 C10.678,36.8447 11.932,38.0987 11.932,39.6407 L11.932,40.9127 C11.932,42.4547 10.678,43.7087 9.136,43.7087 L7.863,43.7087 C6.321,43.7087 5.067,42.4547 5.067,40.9127 L5.067,39.6407 Z M11.113,32.6817 C10.959,33.7357 10.039,34.5567 8.954,34.5567 L8.034,34.5567 C6.949,34.5567 6.029,33.7357 5.875,32.6817 L11.113,32.6817 Z M13.932,40.9127 L13.932,39.6407 C13.932,37.8177 12.904,36.2537 11.408,35.4417 C12.313,34.7167 12.905,33.6167 12.905,32.3697 L12.905,30.9197 L4.336,30.9167 L4.086,30.9197 L4.083,32.3697 C4.083,33.6187 4.677,34.7207 5.584,35.4447 C4.092,36.2587 3.067,37.8207 3.067,39.6407 L3.067,40.9127 C3.067,42.0517 3.48,43.0827 4.144,43.9047 L0,43.9047 L0,62.9167 L17.396,62.9167 L17.396,43.9047 L12.856,43.9047 C13.519,43.0827 13.932,42.0517 13.932,40.9127 Z" id="Fill-10" fill="#0176BC" mask="url(#mask-2)"></path>
                            </g>
                        </g>
                    </g>
                </g>
            </g>
        </g>
    </g>
</svg>