<?xml version="1.0" encoding="UTF-8"?>
<svg width="90px" height="90px" viewBox="0 0 90 90" version="1.1" xmlns="http://www.w3.org/2000/svg" xmlns:xlink="http://www.w3.org/1999/xlink">
    <!-- Generator: Sketch 48.2 (47327) - http://www.bohemiancoding.com/sketch -->
    <title>Financial Consultants</title>
    <desc>Created with Sketch.</desc>
    <defs></defs>
    <g id="Homepage" stroke="none" stroke-width="1" fill="none" fill-rule="evenodd" transform="translate(-534.000000, -4980.000000)">
        <g id="Financial-Consultants" transform="translate(534.000000, 4980.000000)" fill="#3A3A3A">
            <polygon id="Fill-1" points="34.804 53.6042 38.811 53.6042 38.811 49.5962 34.804 49.5962"></polygon>
            <polygon id="Fill-2" points="34.804 63.6042 38.811 63.6042 38.811 59.5962 34.804 59.5962"></polygon>
            <polygon id="Fill-3" points="34.804 73.6042 38.811 73.6042 38.811 69.5962 34.804 69.5962"></polygon>
            <polygon id="Fill-4" points="34.804 43.6042 38.811 43.6042 38.811 39.5962 34.804 39.5962"></polygon>
            <polygon id="Fill-5" points="34.804 33.6042 38.811 33.6042 38.811 29.5962 34.804 29.5962"></polygon>
            <polygon id="Fill-6" points="34.804 23.6042 38.811 23.6042 38.811 19.5962 34.804 19.5962"></polygon>
            <polygon id="Fill-7" points="42.8 53.6042 46.807 53.6042 46.807 49.5962 42.8 49.5962"></polygon>
            <polygon id="Fill-8" points="42.8 63.6042 46.807 63.6042 46.807 59.5962 42.8 59.5962"></polygon>
            <polygon id="Fill-9" points="42.8 73.6042 46.807 73.6042 46.807 69.5962 42.8 69.5962"></polygon>
            <polygon id="Fill-10" points="42.8 43.6042 46.807 43.6042 46.807 39.5962 42.8 39.5962"></polygon>
            <polygon id="Fill-11" points="42.8 33.6042 46.807 33.6042 46.807 29.5962 42.8 29.5962"></polygon>
            <polygon id="Fill-12" points="42.8 23.6042 46.807 23.6042 46.807 19.5962 42.8 19.5962"></polygon>
            <polygon id="Fill-13" points="50.796 53.6042 54.803 53.6042 54.803 49.5962 50.796 49.5962"></polygon>
            <polygon id="Fill-14" points="50.796 63.6042 54.803 63.6042 54.803 59.5962 50.796 59.5962"></polygon>
            <polygon id="Fill-15" points="50.796 73.6042 54.803 73.6042 54.803 69.5962 50.796 69.5962"></polygon>
            <polygon id="Fill-16" points="50.796 43.6042 54.803 43.6042 54.803 39.5962 50.796 39.5962"></polygon>
            <polygon id="Fill-17" points="50.796 33.6042 54.803 33.6042 54.803 29.5962 50.796 29.5962"></polygon>
            <polygon id="Fill-18" points="50.796 23.6042 54.803 23.6042 54.803 19.5962 50.796 19.5962"></polygon>
            <polygon id="Fill-19" points="62.904 53.6042 66.912 53.6042 66.912 49.5962 62.904 49.5962"></polygon>
            <polygon id="Fill-20" points="62.904 63.6042 66.912 63.6042 66.912 59.5962 62.904 59.5962"></polygon>
            <polygon id="Fill-21" points="62.904 73.6042 66.912 73.6042 66.912 69.5962 62.904 69.5962"></polygon>
            <polygon id="Fill-22" points="62.904 43.6042 66.912 43.6042 66.912 39.5962 62.904 39.5962"></polygon>
            <polygon id="Fill-23" points="62.904 33.6042 66.912 33.6042 66.912 29.5962 62.904 29.5962"></polygon>
            <polygon id="Fill-24" points="62.904 23.6042 66.912 23.6042 66.912 19.5962 62.904 19.5962"></polygon>
            <polygon id="Fill-25" points="70.9 53.6042 74.908 53.6042 74.908 49.5962 70.9 49.5962"></polygon>
            <polygon id="Fill-26" points="70.9 63.6042 74.908 63.6042 74.908 59.5962 70.9 59.5962"></polygon>
            <polygon id="Fill-27" points="70.9 73.6042 74.908 73.6042 74.908 69.5962 70.9 69.5962"></polygon>
            <polygon id="Fill-28" points="70.9 43.6042 74.908 43.6042 74.908 39.5962 70.9 39.5962"></polygon>
            <polygon id="Fill-29" points="70.9 33.6042 74.908 33.6042 74.908 29.5962 70.9 29.5962"></polygon>
            <polygon id="Fill-30" points="70.9 23.6042 74.908 23.6042 74.908 19.5962 70.9 19.5962"></polygon>
            <polygon id="Fill-31" points="78.896 53.6042 82.903 53.6042 82.903 49.5962 78.896 49.5962"></polygon>
            <polygon id="Fill-32" points="78.896 63.6042 82.903 63.6042 82.903 59.5962 78.896 59.5962"></polygon>
            <polygon id="Fill-33" points="78.896 73.6042 82.903 73.6042 82.903 69.5962 78.896 69.5962"></polygon>
            <polygon id="Fill-34" points="78.896 43.6042 82.903 43.6042 82.903 39.5962 78.896 39.5962"></polygon>
            <polygon id="Fill-35" points="78.896 33.6042 82.903 33.6042 82.903 29.5962 78.896 29.5962"></polygon>
            <polygon id="Fill-36" points="78.896 23.6042 82.903 23.6042 82.903 19.5962 78.896 19.5962"></polygon>
            <polygon id="Fill-37" points="6.964 53.6042 10.971 53.6042 10.971 49.5962 6.964 49.5962"></polygon>
            <polygon id="Fill-38" points="6.964 63.6042 10.971 63.6042 10.971 59.5962 6.964 59.5962"></polygon>
            <polygon id="Fill-39" points="6.964 73.6042 10.971 73.6042 10.971 69.5962 6.964 69.5962"></polygon>
            <polygon id="Fill-40" points="14.96 53.6042 18.967 53.6042 18.967 49.5962 14.96 49.5962"></polygon>
            <polygon id="Fill-41" points="14.96 63.6042 18.967 63.6042 18.967 59.5962 14.96 59.5962"></polygon>
            <polygon id="Fill-42" points="14.96 73.6042 18.967 73.6042 18.967 69.5962 14.96 69.5962"></polygon>
            <polygon id="Fill-43" points="22.689 53.6042 26.697 53.6042 26.697 49.5962 22.689 49.5962"></polygon>
            <polygon id="Fill-44" points="22.689 63.6042 26.697 63.6042 26.697 59.5962 22.689 59.5962"></polygon>
            <polygon id="Fill-45" points="22.689 73.6042 26.697 73.6042 26.697 69.5962 22.689 69.5962"></polygon>
            <path d="M88.0812,-0.0001 L60.0082,14.0369 L60.0082,-0.0001 L30.0082,14.9999 L30.0082,31.9989 L2.0042,45.9999 L2.0042,82.5109 L0.0002,82.5109 L0.0002,89.5109 L90.0002,89.5109 L90.0002,82.5109 L88.0812,82.5109 L88.0812,-0.0001 Z M60.0812,16.2369 L86.0812,3.2359 L86.0812,82.5109 L60.0812,82.5109 L60.0812,16.2369 Z M32.0082,16.2369 L58.0082,3.2359 L58.0082,82.5109 L32.0082,82.5109 L32.0082,16.2369 Z M4.0042,47.2369 L30.0042,34.2369 L30.0042,82.5109 L4.0042,82.5109 L4.0042,47.2369 Z M2.0002,84.5109 L2.0042,84.5109 L2.0042,84.8859 L30.0082,84.8859 L32.0052,84.8859 L58.0812,84.8859 L60.0082,84.8859 L87.9992,84.8859 L87.9992,87.5109 L2.0002,87.5109 L2.0002,84.5109 Z" id="Fill-46"></path>
        </g>
    </g>
</svg>