<?xml version="1.0" encoding="UTF-8"?>
<svg width="92px" height="76px" viewBox="0 0 92 76" version="1.1" xmlns="http://www.w3.org/2000/svg" xmlns:xlink="http://www.w3.org/1999/xlink">
    <!-- Generator: Sketch 48.2 (47327) - http://www.bohemiancoding.com/sketch -->
    <title>Page 1</title>
    <desc>Created with Sketch.</desc>
    <defs></defs>
    <g id="Homepage" stroke="none" stroke-width="1" fill="none" fill-rule="evenodd" transform="translate(-1106.000000, -4995.000000)">
        <g id="The-Value-We-Bring" transform="translate(0.000000, 4748.000000)" fill="#3A3A3A">
            <g id="Group-25" transform="translate(122.000000, 247.000000)">
                <g id="Page-1" transform="translate(984.000000, 0.000000)">
                    <polygon id="Fill-1" points="34.155 13.4927 38.364 13.4927 38.364 9.2827 34.155 9.2827"></polygon>
                    <polygon id="Fill-2" points="40.542 13.4927 44.752 13.4927 44.752 9.2827 40.542 9.2827"></polygon>
                    <polygon id="Fill-3" points="46.929 13.4927 51.139 13.4927 51.139 9.2827 46.929 9.2827"></polygon>
                    <polygon id="Fill-4" points="53.315 13.4927 57.525 13.4927 57.525 9.2827 53.315 9.2827"></polygon>
                    <polygon id="Fill-5" points="34.155 19.6707 38.364 19.6707 38.364 15.4607 34.155 15.4607"></polygon>
                    <polygon id="Fill-6" points="40.542 19.6707 44.752 19.6707 44.752 15.4607 40.542 15.4607"></polygon>
                    <polygon id="Fill-7" points="46.929 19.6707 51.139 19.6707 51.139 15.4607 46.929 15.4607"></polygon>
                    <polygon id="Fill-8" points="53.315 19.6707 57.525 19.6707 57.525 15.4607 53.315 15.4607"></polygon>
                    <polygon id="Fill-9" points="34.155 25.8487 38.364 25.8487 38.364 21.6387 34.155 21.6387"></polygon>
                    <polygon id="Fill-10" points="40.542 25.8487 44.752 25.8487 44.752 21.6387 40.542 21.6387"></polygon>
                    <polygon id="Fill-11" points="46.929 25.8487 51.139 25.8487 51.139 21.6387 46.929 21.6387"></polygon>
                    <polygon id="Fill-12" points="53.315 25.8487 57.525 25.8487 57.525 21.6387 53.315 21.6387"></polygon>
                    <polygon id="Fill-13" points="34.155 41.6437 38.364 41.6437 38.364 37.4337 34.155 37.4337"></polygon>
                    <polygon id="Fill-14" points="40.542 41.6437 44.752 41.6437 44.752 37.4337 40.542 37.4337"></polygon>
                    <polygon id="Fill-15" points="46.929 41.6437 51.139 41.6437 51.139 37.4337 46.929 37.4337"></polygon>
                    <polygon id="Fill-16" points="53.315 41.6437 57.525 41.6437 57.525 37.4337 53.315 37.4337"></polygon>
                    <polygon id="Fill-17" points="64.356 29.2887 68.566 29.2887 68.566 25.0787 64.356 25.0787"></polygon>
                    <polygon id="Fill-18" points="70.743 29.2887 74.953 29.2887 74.953 25.0787 70.743 25.0787"></polygon>
                    <polygon id="Fill-19" points="77.13 29.2887 81.34 29.2887 81.34 25.0787 77.13 25.0787"></polygon>
                    <polygon id="Fill-20" points="83.517 29.2887 87.727 29.2887 87.727 25.0787 83.517 25.0787"></polygon>
                    <polygon id="Fill-21" points="64.356 36.1527 68.566 36.1527 68.566 31.9427 64.356 31.9427"></polygon>
                    <polygon id="Fill-22" points="70.743 36.1527 74.953 36.1527 74.953 31.9427 70.743 31.9427"></polygon>
                    <polygon id="Fill-23" points="77.13 36.1527 81.34 36.1527 81.34 31.9427 77.13 31.9427"></polygon>
                    <polygon id="Fill-24" points="83.517 36.1527 87.727 36.1527 87.727 31.9427 83.517 31.9427"></polygon>
                    <polygon id="Fill-25" points="64.356 42.9257 68.566 42.9257 68.566 38.7157 64.356 38.7157"></polygon>
                    <polygon id="Fill-26" points="70.743 42.9257 74.953 42.9257 74.953 38.7157 70.743 38.7157"></polygon>
                    <polygon id="Fill-27" points="77.13 42.9257 81.34 42.9257 81.34 38.7157 77.13 38.7157"></polygon>
                    <polygon id="Fill-28" points="83.517 42.9257 87.727 42.9257 87.727 38.7157 83.517 38.7157"></polygon>
                    <polygon id="Fill-29" points="64.356 49.8807 68.566 49.8807 68.566 45.6707 64.356 45.6707"></polygon>
                    <polygon id="Fill-30" points="70.743 49.8807 74.953 49.8807 74.953 45.6707 70.743 45.6707"></polygon>
                    <polygon id="Fill-31" points="77.13 49.8807 81.34 49.8807 81.34 45.6707 77.13 45.6707"></polygon>
                    <polygon id="Fill-32" points="83.517 49.8807 87.727 49.8807 87.727 45.6707 83.517 45.6707"></polygon>
                    <polygon id="Fill-33" points="64.356 56.3787 68.566 56.3787 68.566 52.1687 64.356 52.1687"></polygon>
                    <polygon id="Fill-34" points="70.743 56.3787 74.953 56.3787 74.953 52.1687 70.743 52.1687"></polygon>
                    <polygon id="Fill-35" points="77.13 56.3787 81.34 56.3787 81.34 52.1687 77.13 52.1687"></polygon>
                    <polygon id="Fill-36" points="83.517 56.3787 87.727 56.3787 87.727 52.1687 83.517 52.1687"></polygon>
                    <polygon id="Fill-37" points="64.356 63.2427 68.566 63.2427 68.566 59.0327 64.356 59.0327"></polygon>
                    <polygon id="Fill-38" points="70.743 63.2427 74.953 63.2427 74.953 59.0327 70.743 59.0327"></polygon>
                    <polygon id="Fill-39" points="77.13 63.2427 81.34 63.2427 81.34 59.0327 77.13 59.0327"></polygon>
                    <polygon id="Fill-40" points="83.517 63.2427 87.727 63.2427 87.727 59.0327 83.517 59.0327"></polygon>
                    <polygon id="Fill-41" points="4.411 48.0507 8.621 48.0507 8.621 43.8407 4.411 43.8407"></polygon>
                    <polygon id="Fill-42" points="10.798 48.0507 15.008 48.0507 15.008 43.8407 10.798 43.8407"></polygon>
                    <polygon id="Fill-43" points="17.185 48.0507 21.395 48.0507 21.395 43.8407 17.185 43.8407"></polygon>
                    <polygon id="Fill-44" points="23.571 48.0507 27.781 48.0507 27.781 43.8407 23.571 43.8407"></polygon>
                    <polygon id="Fill-45" points="4.411 55.1887 8.621 55.1887 8.621 50.9787 4.411 50.9787"></polygon>
                    <polygon id="Fill-46" points="10.798 55.1887 15.008 55.1887 15.008 50.9787 10.798 50.9787"></polygon>
                    <polygon id="Fill-47" points="17.185 55.1887 21.395 55.1887 21.395 50.9787 17.185 50.9787"></polygon>
                    <polygon id="Fill-48" points="23.571 55.1887 27.781 55.1887 27.781 50.9787 23.571 50.9787"></polygon>
                    <polygon id="Fill-49" points="4.411 62.5107 8.621 62.5107 8.621 58.3007 4.411 58.3007"></polygon>
                    <polygon id="Fill-50" points="10.798 62.5107 15.008 62.5107 15.008 58.3007 10.798 58.3007"></polygon>
                    <polygon id="Fill-51" points="17.185 62.5107 21.395 62.5107 21.395 58.3007 17.185 58.3007"></polygon>
                    <polygon id="Fill-52" points="23.571 62.5107 27.781 62.5107 27.781 58.3007 23.571 58.3007"></polygon>
                    <polygon id="Fill-53" points="34.155 47.8217 38.364 47.8217 38.364 43.6117 34.155 43.6117"></polygon>
                    <polygon id="Fill-54" points="40.542 47.8217 44.752 47.8217 44.752 43.6117 40.542 43.6117"></polygon>
                    <polygon id="Fill-55" points="46.929 47.8217 51.139 47.8217 51.139 43.6117 46.929 43.6117"></polygon>
                    <polygon id="Fill-56" points="53.315 47.8217 57.525 47.8217 57.525 43.6117 53.315 43.6117"></polygon>
                    <polygon id="Fill-57" points="34.155 53.9987 38.364 53.9987 38.364 49.7887 34.155 49.7887"></polygon>
                    <polygon id="Fill-58" points="40.542 53.9987 44.752 53.9987 44.752 49.7887 40.542 49.7887"></polygon>
                    <polygon id="Fill-59" points="46.929 53.9987 51.139 53.9987 51.139 49.7887 46.929 49.7887"></polygon>
                    <polygon id="Fill-60" points="53.315 53.9987 57.525 53.9987 57.525 49.7887 53.315 49.7887"></polygon>
                    <path d="M27.9279,-0.0003 L27.9279,6.1737 L29.9389,6.1737 L29.9389,38.4647 L-0.0001,38.4647 L-0.0001,75.0327 L29.9389,75.0327 L31.9559,75.0327 L59.8659,75.0327 L61.8949,75.0327 L91.8219,75.0327 L91.8219,19.1877 L76.9669,19.1877 L76.9669,8.9947 L74.9659,8.9947 L74.9659,19.1877 L61.8949,19.1877 L61.8949,6.1737 L64.1019,6.1737 L64.1019,-0.0003 L27.9279,-0.0003 Z M29.9279,2.0007 L62.1019,2.0007 L62.1019,4.1727 L61.8949,4.1727 L61.8949,4.1107 L29.9389,4.1107 L29.9389,4.1727 L29.9279,4.1727 L29.9279,2.0007 Z M31.9379,6.1737 L59.8939,6.1737 L59.8939,19.1877 L59.8659,19.1877 L59.8659,28.5537 L31.9379,28.5537 L31.9379,6.1737 Z M61.8949,21.1887 L89.8209,21.1887 L89.8209,73.0327 L79.4079,73.0327 L79.4079,65.5087 L72.1989,65.5087 L72.1989,73.0327 L61.8949,73.0327 L61.8949,62.8007 L61.9069,62.8007 L61.9069,56.6277 L61.8949,56.6277 L61.8949,34.7267 L61.9069,34.7267 L61.9069,28.5537 L61.8949,28.5537 L61.8949,21.1887 Z M31.9409,32.7267 L59.8659,32.7267 L59.8659,30.5537 L31.9409,30.5537 L31.9409,32.7267 Z M31.9379,34.7267 L59.8659,34.7267 L59.8659,56.6277 L31.9559,56.6277 L31.9559,38.4647 L31.9379,38.4647 L31.9379,34.7267 Z M1.9999,40.4647 L29.9389,40.4647 L29.9389,73.0327 L19.3709,73.0327 L19.3709,65.5087 L12.1639,65.5087 L12.1639,73.0327 L1.9999,73.0327 L1.9999,40.4647 Z M31.9559,60.8007 L59.8659,60.8007 L59.8659,58.6277 L31.9559,58.6277 L31.9559,60.8007 Z M31.9559,62.8007 L59.8659,62.8007 L59.8659,73.0327 L49.5719,73.0327 L49.5719,65.5087 L42.3639,65.5087 L42.3639,73.0327 L31.9559,73.0327 L31.9559,62.8007 Z" id="Fill-61"></path>
                </g>
            </g>
        </g>
    </g>
</svg>